<svg width="375" height="182" viewBox="0 0 375 182" fill="none" xmlns="http://www.w3.org/2000/svg">
<g filter="url(#filter0_b_109_3981)">
<path d="M79.7754 17H82.1484L85 6.91211H85.1465L88.0176 17H90.3809L94.1602 2.9082H91.5527L89.1406 13.4844H89.0039L86.1914 2.9082H83.9551L81.1816 13.4844H81.0352L78.623 2.9082H75.9961L79.7754 17ZM98.9609 17.2148C101.861 17.2148 103.287 15.5449 103.629 14.168L103.658 14.0801H101.344L101.314 14.1484C101.08 14.6367 100.328 15.3008 99.0098 15.3008C97.3594 15.3008 96.3242 14.1875 96.2949 12.2734H103.756V11.4727C103.756 8.25 101.881 6.12109 98.8438 6.12109C95.8066 6.12109 93.8633 8.31836 93.8633 11.6777V11.6875C93.8633 15.0859 95.7871 17.2148 98.9609 17.2148ZM98.873 8.02539C100.23 8.02539 101.217 8.89453 101.383 10.6426H96.3145C96.5 8.94336 97.5156 8.02539 98.873 8.02539ZM109.035 17.1758C110.539 17.1758 111.691 16.4922 112.277 15.3301H112.443V17H114.885V2.19531H112.443V8.02539H112.277C111.721 6.87305 110.5 6.15039 109.035 6.15039C106.33 6.15039 104.66 8.25977 104.66 11.6582V11.6777C104.66 15.0566 106.359 17.1758 109.035 17.1758ZM109.797 15.125C108.137 15.125 107.131 13.8262 107.131 11.6777V11.6582C107.131 9.50977 108.146 8.20117 109.797 8.20117C111.447 8.20117 112.482 9.51953 112.482 11.6582V11.6777C112.482 13.8164 111.457 15.125 109.797 15.125ZM116.941 17H119.373V10.7793C119.373 9.17773 120.271 8.16211 121.717 8.16211C123.191 8.16211 123.865 9.00195 123.865 10.6621V17H126.297V10.0957C126.297 7.55664 124.998 6.12109 122.615 6.12109C121.072 6.12109 120.047 6.81445 119.539 7.95703H119.373V6.32617H116.941V17ZM132.738 17.2148C135.639 17.2148 137.064 15.5449 137.406 14.168L137.436 14.0801H135.121L135.092 14.1484C134.857 14.6367 134.105 15.3008 132.787 15.3008C131.137 15.3008 130.102 14.1875 130.072 12.2734H137.533V11.4727C137.533 8.25 135.658 6.12109 132.621 6.12109C129.584 6.12109 127.641 8.31836 127.641 11.6777V11.6875C127.641 15.0859 129.564 17.2148 132.738 17.2148ZM132.65 8.02539C134.008 8.02539 134.994 8.89453 135.16 10.6426H130.092C130.277 8.94336 131.293 8.02539 132.65 8.02539ZM142.998 17.2148C145.625 17.2148 147.529 15.8574 147.529 13.8262V13.8066C147.529 12.2539 146.543 11.3652 144.453 10.8965L142.725 10.5156C141.572 10.252 141.123 9.87109 141.123 9.24609V9.23633C141.123 8.43555 141.904 7.9082 142.988 7.9082C144.131 7.9082 144.834 8.45508 145.01 9.12891L145.02 9.1582H147.305V9.13867C147.148 7.41016 145.596 6.12109 142.998 6.12109C140.479 6.12109 138.721 7.44922 138.721 9.37305V9.38281C138.721 10.9551 139.688 11.9121 141.719 12.3613L143.447 12.752C144.619 13.0156 145.088 13.4258 145.088 14.0508V14.0703C145.088 14.8711 144.248 15.418 143.037 15.418C141.826 15.418 141.113 14.9004 140.859 14.1582L140.85 14.1387H138.438V14.1582C138.643 15.9648 140.283 17.2148 142.998 17.2148ZM152.828 17.1758C154.332 17.1758 155.484 16.4922 156.07 15.3301H156.236V17H158.678V2.19531H156.236V8.02539H156.07C155.514 6.87305 154.293 6.15039 152.828 6.15039C150.123 6.15039 148.453 8.25977 148.453 11.6582V11.6777C148.453 15.0566 150.152 17.1758 152.828 17.1758ZM153.59 15.125C151.93 15.125 150.924 13.8262 150.924 11.6777V11.6582C150.924 9.50977 151.939 8.20117 153.59 8.20117C155.24 8.20117 156.275 9.51953 156.275 11.6582V11.6777C156.275 13.8164 155.25 15.125 153.59 15.125ZM163.645 17.1758C165.051 17.1758 166.184 16.5703 166.77 15.5352H166.936V17H169.338V9.70508C169.338 7.44922 167.795 6.12109 165.051 6.12109C162.512 6.12109 160.793 7.3125 160.559 9.10938L160.549 9.19727H162.844L162.854 9.1582C163.098 8.45508 163.82 8.05469 164.934 8.05469C166.242 8.05469 166.936 8.64062 166.936 9.70508V10.623L164.191 10.7891C161.594 10.9453 160.139 12.0586 160.139 13.9629V13.9824C160.139 15.9258 161.613 17.1758 163.645 17.1758ZM162.541 13.8652V13.8457C162.541 12.9668 163.176 12.4688 164.533 12.3809L166.936 12.2246V13.084C166.936 14.3535 165.852 15.3105 164.387 15.3105C163.312 15.3105 162.541 14.7734 162.541 13.8652ZM172.068 20.75C174.432 20.75 175.652 19.9004 176.57 17.2246L180.398 6.32617H177.84L175.359 14.666H175.174L172.684 6.32617H170.027L173.846 17.0098L173.719 17.498C173.455 18.4648 172.859 18.875 171.863 18.875C171.609 18.875 171.336 18.8652 171.141 18.8457V20.7109C171.434 20.7402 171.775 20.75 172.068 20.75ZM186.426 17H189.062L195.088 5.00781V2.9082H185.283V4.96875H192.549V5.125L186.426 17ZM206.135 17.3516C209.514 17.3516 211.633 15.6328 211.633 12.8887V12.8789C211.633 10.75 210.393 9.55859 207.424 8.93359L205.91 8.61133C204.152 8.24023 203.439 7.61523 203.439 6.61914V6.60938C203.439 5.4082 204.553 4.67578 206.115 4.67578C207.727 4.66602 208.771 5.44727 208.947 6.54102L208.967 6.6582H211.379L211.369 6.53125C211.193 4.26562 209.25 2.55664 206.125 2.55664C203.078 2.55664 200.91 4.25586 200.91 6.77539V6.78516C200.91 8.88477 202.16 10.2324 205.041 10.8379L206.555 11.1504C208.371 11.541 209.104 12.1562 209.104 13.1719V13.1816C209.104 14.3926 207.912 15.2324 206.213 15.2324C204.426 15.2324 203.166 14.4512 203.049 13.2695L203.039 13.1719H200.598L200.607 13.3086C200.783 15.7402 202.863 17.3516 206.135 17.3516ZM217.781 17.2148C220.682 17.2148 222.107 15.5449 222.449 14.168L222.479 14.0801H220.164L220.135 14.1484C219.9 14.6367 219.148 15.3008 217.83 15.3008C216.18 15.3008 215.145 14.1875 215.115 12.2734H222.576V11.4727C222.576 8.25 220.701 6.12109 217.664 6.12109C214.627 6.12109 212.684 8.31836 212.684 11.6777V11.6875C212.684 15.0859 214.607 17.2148 217.781 17.2148ZM217.693 8.02539C219.051 8.02539 220.037 8.89453 220.203 10.6426H215.135C215.32 8.94336 216.336 8.02539 217.693 8.02539ZM224.008 20.5449H226.439V15.3008H226.605C227.162 16.4531 228.383 17.1758 229.848 17.1758C232.553 17.1758 234.232 15.0762 234.232 11.6777V11.6582C234.232 8.2793 232.523 6.15039 229.848 6.15039C228.354 6.15039 227.191 6.83398 226.605 7.99609H226.439V6.32617H224.008V20.5449ZM229.086 15.125C227.436 15.125 226.41 13.8066 226.41 11.668V11.6484C226.41 9.50977 227.436 8.20117 229.086 8.20117C230.746 8.20117 231.752 9.50977 231.752 11.6582V11.6777C231.752 13.8164 230.746 15.125 229.086 15.125ZM239.883 17.0488C240.352 17.0488 240.801 17.0098 241.152 16.9414V15.0664C240.859 15.0957 240.674 15.1055 240.332 15.1055C239.316 15.1055 238.896 14.6562 238.896 13.5918V8.21094H241.152V6.32617H238.896V3.70898H236.426V6.32617H234.766V8.21094H236.426V14.168C236.426 16.2285 237.432 17.0488 239.883 17.0488ZM247.047 17.2148C249.947 17.2148 251.373 15.5449 251.715 14.168L251.744 14.0801H249.43L249.4 14.1484C249.166 14.6367 248.414 15.3008 247.096 15.3008C245.445 15.3008 244.41 14.1875 244.381 12.2734H251.842V11.4727C251.842 8.25 249.967 6.12109 246.93 6.12109C243.893 6.12109 241.949 8.31836 241.949 11.6777V11.6875C241.949 15.0859 243.873 17.2148 247.047 17.2148ZM246.959 8.02539C248.316 8.02539 249.303 8.89453 249.469 10.6426H244.4C244.586 8.94336 245.602 8.02539 246.959 8.02539ZM253.273 17H255.705V10.5059C255.705 9.17773 256.584 8.16211 257.785 8.16211C258.977 8.16211 259.709 8.89453 259.709 10.0762V17H262.141V10.3301C262.141 9.10938 262.961 8.16211 264.23 8.16211C265.529 8.16211 266.164 8.86523 266.164 10.252V17H268.596V9.65625C268.596 7.43945 267.307 6.12109 265.158 6.12109C263.674 6.12109 262.443 6.88281 261.926 8.04492H261.76C261.301 6.86328 260.246 6.12109 258.801 6.12109C257.404 6.12109 256.33 6.79492 255.871 7.98633H255.705V6.32617H253.273V17ZM276.414 17.1758C279.09 17.1758 280.799 15.0566 280.799 11.6777V11.6582C280.799 8.25977 279.119 6.15039 276.414 6.15039C274.949 6.15039 273.729 6.87305 273.172 8.02539H273.006V2.19531H270.574V17H273.006V15.3301H273.172C273.758 16.4922 274.92 17.1758 276.414 17.1758ZM275.652 15.125C274.002 15.125 272.977 13.8164 272.977 11.6777V11.6582C272.977 9.51953 274.002 8.20117 275.652 8.20117C277.312 8.20117 278.318 9.50977 278.318 11.6582V11.6777C278.318 13.8262 277.312 15.125 275.652 15.125ZM286.801 17.2148C289.701 17.2148 291.127 15.5449 291.469 14.168L291.498 14.0801H289.184L289.154 14.1484C288.92 14.6367 288.168 15.3008 286.85 15.3008C285.199 15.3008 284.164 14.1875 284.135 12.2734H291.596V11.4727C291.596 8.25 289.721 6.12109 286.684 6.12109C283.646 6.12109 281.703 8.31836 281.703 11.6777V11.6875C281.703 15.0859 283.627 17.2148 286.801 17.2148ZM286.713 8.02539C288.07 8.02539 289.057 8.89453 289.223 10.6426H284.154C284.34 8.94336 285.355 8.02539 286.713 8.02539ZM293.027 17H295.459V10.7988C295.459 9.27539 296.523 8.30859 298.145 8.30859C298.564 8.30859 298.965 8.36719 299.355 8.44531V6.26758C299.121 6.19922 298.74 6.15039 298.369 6.15039C296.963 6.15039 295.986 6.82422 295.625 7.9668H295.459V6.32617H293.027V17Z" fill="white" style="mix-blend-mode:soft-light"/>
<path d="M79.7754 17H82.1484L85 6.91211H85.1465L88.0176 17H90.3809L94.1602 2.9082H91.5527L89.1406 13.4844H89.0039L86.1914 2.9082H83.9551L81.1816 13.4844H81.0352L78.623 2.9082H75.9961L79.7754 17ZM98.9609 17.2148C101.861 17.2148 103.287 15.5449 103.629 14.168L103.658 14.0801H101.344L101.314 14.1484C101.08 14.6367 100.328 15.3008 99.0098 15.3008C97.3594 15.3008 96.3242 14.1875 96.2949 12.2734H103.756V11.4727C103.756 8.25 101.881 6.12109 98.8438 6.12109C95.8066 6.12109 93.8633 8.31836 93.8633 11.6777V11.6875C93.8633 15.0859 95.7871 17.2148 98.9609 17.2148ZM98.873 8.02539C100.23 8.02539 101.217 8.89453 101.383 10.6426H96.3145C96.5 8.94336 97.5156 8.02539 98.873 8.02539ZM109.035 17.1758C110.539 17.1758 111.691 16.4922 112.277 15.3301H112.443V17H114.885V2.19531H112.443V8.02539H112.277C111.721 6.87305 110.5 6.15039 109.035 6.15039C106.33 6.15039 104.66 8.25977 104.66 11.6582V11.6777C104.66 15.0566 106.359 17.1758 109.035 17.1758ZM109.797 15.125C108.137 15.125 107.131 13.8262 107.131 11.6777V11.6582C107.131 9.50977 108.146 8.20117 109.797 8.20117C111.447 8.20117 112.482 9.51953 112.482 11.6582V11.6777C112.482 13.8164 111.457 15.125 109.797 15.125ZM116.941 17H119.373V10.7793C119.373 9.17773 120.271 8.16211 121.717 8.16211C123.191 8.16211 123.865 9.00195 123.865 10.6621V17H126.297V10.0957C126.297 7.55664 124.998 6.12109 122.615 6.12109C121.072 6.12109 120.047 6.81445 119.539 7.95703H119.373V6.32617H116.941V17ZM132.738 17.2148C135.639 17.2148 137.064 15.5449 137.406 14.168L137.436 14.0801H135.121L135.092 14.1484C134.857 14.6367 134.105 15.3008 132.787 15.3008C131.137 15.3008 130.102 14.1875 130.072 12.2734H137.533V11.4727C137.533 8.25 135.658 6.12109 132.621 6.12109C129.584 6.12109 127.641 8.31836 127.641 11.6777V11.6875C127.641 15.0859 129.564 17.2148 132.738 17.2148ZM132.65 8.02539C134.008 8.02539 134.994 8.89453 135.16 10.6426H130.092C130.277 8.94336 131.293 8.02539 132.65 8.02539ZM142.998 17.2148C145.625 17.2148 147.529 15.8574 147.529 13.8262V13.8066C147.529 12.2539 146.543 11.3652 144.453 10.8965L142.725 10.5156C141.572 10.252 141.123 9.87109 141.123 9.24609V9.23633C141.123 8.43555 141.904 7.9082 142.988 7.9082C144.131 7.9082 144.834 8.45508 145.01 9.12891L145.02 9.1582H147.305V9.13867C147.148 7.41016 145.596 6.12109 142.998 6.12109C140.479 6.12109 138.721 7.44922 138.721 9.37305V9.38281C138.721 10.9551 139.688 11.9121 141.719 12.3613L143.447 12.752C144.619 13.0156 145.088 13.4258 145.088 14.0508V14.0703C145.088 14.8711 144.248 15.418 143.037 15.418C141.826 15.418 141.113 14.9004 140.859 14.1582L140.85 14.1387H138.438V14.1582C138.643 15.9648 140.283 17.2148 142.998 17.2148ZM152.828 17.1758C154.332 17.1758 155.484 16.4922 156.07 15.3301H156.236V17H158.678V2.19531H156.236V8.02539H156.07C155.514 6.87305 154.293 6.15039 152.828 6.15039C150.123 6.15039 148.453 8.25977 148.453 11.6582V11.6777C148.453 15.0566 150.152 17.1758 152.828 17.1758ZM153.59 15.125C151.93 15.125 150.924 13.8262 150.924 11.6777V11.6582C150.924 9.50977 151.939 8.20117 153.59 8.20117C155.24 8.20117 156.275 9.51953 156.275 11.6582V11.6777C156.275 13.8164 155.25 15.125 153.59 15.125ZM163.645 17.1758C165.051 17.1758 166.184 16.5703 166.77 15.5352H166.936V17H169.338V9.70508C169.338 7.44922 167.795 6.12109 165.051 6.12109C162.512 6.12109 160.793 7.3125 160.559 9.10938L160.549 9.19727H162.844L162.854 9.1582C163.098 8.45508 163.82 8.05469 164.934 8.05469C166.242 8.05469 166.936 8.64062 166.936 9.70508V10.623L164.191 10.7891C161.594 10.9453 160.139 12.0586 160.139 13.9629V13.9824C160.139 15.9258 161.613 17.1758 163.645 17.1758ZM162.541 13.8652V13.8457C162.541 12.9668 163.176 12.4688 164.533 12.3809L166.936 12.2246V13.084C166.936 14.3535 165.852 15.3105 164.387 15.3105C163.312 15.3105 162.541 14.7734 162.541 13.8652ZM172.068 20.75C174.432 20.75 175.652 19.9004 176.57 17.2246L180.398 6.32617H177.84L175.359 14.666H175.174L172.684 6.32617H170.027L173.846 17.0098L173.719 17.498C173.455 18.4648 172.859 18.875 171.863 18.875C171.609 18.875 171.336 18.8652 171.141 18.8457V20.7109C171.434 20.7402 171.775 20.75 172.068 20.75ZM186.426 17H189.062L195.088 5.00781V2.9082H185.283V4.96875H192.549V5.125L186.426 17ZM206.135 17.3516C209.514 17.3516 211.633 15.6328 211.633 12.8887V12.8789C211.633 10.75 210.393 9.55859 207.424 8.93359L205.91 8.61133C204.152 8.24023 203.439 7.61523 203.439 6.61914V6.60938C203.439 5.4082 204.553 4.67578 206.115 4.67578C207.727 4.66602 208.771 5.44727 208.947 6.54102L208.967 6.6582H211.379L211.369 6.53125C211.193 4.26562 209.25 2.55664 206.125 2.55664C203.078 2.55664 200.91 4.25586 200.91 6.77539V6.78516C200.91 8.88477 202.16 10.2324 205.041 10.8379L206.555 11.1504C208.371 11.541 209.104 12.1562 209.104 13.1719V13.1816C209.104 14.3926 207.912 15.2324 206.213 15.2324C204.426 15.2324 203.166 14.4512 203.049 13.2695L203.039 13.1719H200.598L200.607 13.3086C200.783 15.7402 202.863 17.3516 206.135 17.3516ZM217.781 17.2148C220.682 17.2148 222.107 15.5449 222.449 14.168L222.479 14.0801H220.164L220.135 14.1484C219.9 14.6367 219.148 15.3008 217.83 15.3008C216.18 15.3008 215.145 14.1875 215.115 12.2734H222.576V11.4727C222.576 8.25 220.701 6.12109 217.664 6.12109C214.627 6.12109 212.684 8.31836 212.684 11.6777V11.6875C212.684 15.0859 214.607 17.2148 217.781 17.2148ZM217.693 8.02539C219.051 8.02539 220.037 8.89453 220.203 10.6426H215.135C215.32 8.94336 216.336 8.02539 217.693 8.02539ZM224.008 20.5449H226.439V15.3008H226.605C227.162 16.4531 228.383 17.1758 229.848 17.1758C232.553 17.1758 234.232 15.0762 234.232 11.6777V11.6582C234.232 8.2793 232.523 6.15039 229.848 6.15039C228.354 6.15039 227.191 6.83398 226.605 7.99609H226.439V6.32617H224.008V20.5449ZM229.086 15.125C227.436 15.125 226.41 13.8066 226.41 11.668V11.6484C226.41 9.50977 227.436 8.20117 229.086 8.20117C230.746 8.20117 231.752 9.50977 231.752 11.6582V11.6777C231.752 13.8164 230.746 15.125 229.086 15.125ZM239.883 17.0488C240.352 17.0488 240.801 17.0098 241.152 16.9414V15.0664C240.859 15.0957 240.674 15.1055 240.332 15.1055C239.316 15.1055 238.896 14.6562 238.896 13.5918V8.21094H241.152V6.32617H238.896V3.70898H236.426V6.32617H234.766V8.21094H236.426V14.168C236.426 16.2285 237.432 17.0488 239.883 17.0488ZM247.047 17.2148C249.947 17.2148 251.373 15.5449 251.715 14.168L251.744 14.0801H249.43L249.4 14.1484C249.166 14.6367 248.414 15.3008 247.096 15.3008C245.445 15.3008 244.41 14.1875 244.381 12.2734H251.842V11.4727C251.842 8.25 249.967 6.12109 246.93 6.12109C243.893 6.12109 241.949 8.31836 241.949 11.6777V11.6875C241.949 15.0859 243.873 17.2148 247.047 17.2148ZM246.959 8.02539C248.316 8.02539 249.303 8.89453 249.469 10.6426H244.4C244.586 8.94336 245.602 8.02539 246.959 8.02539ZM253.273 17H255.705V10.5059C255.705 9.17773 256.584 8.16211 257.785 8.16211C258.977 8.16211 259.709 8.89453 259.709 10.0762V17H262.141V10.3301C262.141 9.10938 262.961 8.16211 264.23 8.16211C265.529 8.16211 266.164 8.86523 266.164 10.252V17H268.596V9.65625C268.596 7.43945 267.307 6.12109 265.158 6.12109C263.674 6.12109 262.443 6.88281 261.926 8.04492H261.76C261.301 6.86328 260.246 6.12109 258.801 6.12109C257.404 6.12109 256.33 6.79492 255.871 7.98633H255.705V6.32617H253.273V17ZM276.414 17.1758C279.09 17.1758 280.799 15.0566 280.799 11.6777V11.6582C280.799 8.25977 279.119 6.15039 276.414 6.15039C274.949 6.15039 273.729 6.87305 273.172 8.02539H273.006V2.19531H270.574V17H273.006V15.3301H273.172C273.758 16.4922 274.92 17.1758 276.414 17.1758ZM275.652 15.125C274.002 15.125 272.977 13.8164 272.977 11.6777V11.6582C272.977 9.51953 274.002 8.20117 275.652 8.20117C277.312 8.20117 278.318 9.50977 278.318 11.6582V11.6777C278.318 13.8262 277.312 15.125 275.652 15.125ZM286.801 17.2148C289.701 17.2148 291.127 15.5449 291.469 14.168L291.498 14.0801H289.184L289.154 14.1484C288.92 14.6367 288.168 15.3008 286.85 15.3008C285.199 15.3008 284.164 14.1875 284.135 12.2734H291.596V11.4727C291.596 8.25 289.721 6.12109 286.684 6.12109C283.646 6.12109 281.703 8.31836 281.703 11.6777V11.6875C281.703 15.0859 283.627 17.2148 286.801 17.2148ZM286.713 8.02539C288.07 8.02539 289.057 8.89453 289.223 10.6426H284.154C284.34 8.94336 285.355 8.02539 286.713 8.02539ZM293.027 17H295.459V10.7988C295.459 9.27539 296.523 8.30859 298.145 8.30859C298.564 8.30859 298.965 8.36719 299.355 8.44531V6.26758C299.121 6.19922 298.74 6.15039 298.369 6.15039C296.963 6.15039 295.986 6.82422 295.625 7.9668H295.459V6.32617H293.027V17Z" fill="#E4E4E4" fill-opacity="0.98" style="mix-blend-mode:luminosity"/>
</g>
<g filter="url(#filter1_b_109_3981)">
<path d="M103.625 106.938C107.141 106.938 109.578 104.5 109.578 100.844V44.1719C109.578 40 107 37.4219 102.734 37.4219C100.203 37.4219 98.3281 37.8438 95.3281 39.9531L81.5 49.6562C79.4844 51.0625 78.7344 52.4688 78.7344 54.3438C78.7344 57.0156 80.5625 58.8438 83.0938 58.8438C84.4062 58.8438 85.3438 58.5156 86.5156 57.6719L97.4375 50.0781H97.6719V100.844C97.6719 104.5 100.109 106.938 103.625 106.938ZM127.047 106H164.453C167.641 106 169.609 104.031 169.609 101.078C169.609 98.0781 167.641 96.1094 164.453 96.1094H137.453V95.875L152.969 80.5938C164.172 69.625 167.969 64.2812 167.969 56.3594C167.969 45.0156 158.641 37 145.094 37C131.922 37 123.812 44.7344 121.984 52.0469C121.75 52.8438 121.609 53.6875 121.609 54.5781C121.609 57.5781 123.578 59.5938 126.859 59.5938C129.625 59.5938 131.031 58.3281 132.25 55.8906C134.641 49.7969 138.906 46.7031 145 46.7031C151.516 46.7031 156.156 51.0625 156.156 57.1094C156.156 62.2656 154 65.6875 145.375 74.2188L124.703 94.7031C122.125 97.1406 121.328 98.5469 121.328 100.891C121.328 103.938 123.297 106 127.047 106ZM182.016 62.2656C185.766 62.2656 188.719 59.2656 188.719 55.5156C188.719 51.7656 185.766 48.7656 182.016 48.7656C178.219 48.7656 175.266 51.7656 175.266 55.5156C175.266 59.2656 178.219 62.2656 182.016 62.2656ZM182.016 96.1094C185.766 96.1094 188.719 93.1562 188.719 89.3594C188.719 85.6094 185.766 82.6094 182.016 82.6094C178.219 82.6094 175.266 85.6094 175.266 89.3594C175.266 93.1562 178.219 96.1094 182.016 96.1094ZM220.672 107.359C235.672 107.359 246.078 97.6562 246.078 83.5C246.078 70.5625 236.844 61.4219 223.906 61.4219C217.109 61.4219 211.531 64.0469 208.672 68.2656H208.438L210.219 48.25H237.547C240.641 48.25 242.656 46.2812 242.656 43.2812C242.656 40.3281 240.641 38.3594 237.547 38.3594H208.391C203.094 38.3594 200.375 40.5156 199.953 45.8594L197.797 71.4062C197.75 71.6875 197.75 71.875 197.75 72.1562C197.656 75.4375 199.578 78.2031 203.469 78.2031C206.234 78.2031 207.406 77.5938 210.219 74.7812C212.797 72.25 216.5 70.5156 220.766 70.5156C228.734 70.5156 234.406 76.0469 234.406 83.8281C234.406 91.8438 228.734 97.5156 220.719 97.5156C214.203 97.5156 209.703 94.2812 207.406 88.7969C206.141 86.3125 204.594 85.3281 202.062 85.3281C198.875 85.3281 196.859 87.2969 196.859 90.4375C196.859 92.1719 197.281 93.5781 197.938 95.0312C201.266 102.391 210.266 107.359 220.672 107.359ZM261.859 106.938C264.484 106.938 265.984 106 267.297 103.422L293.594 52.4219C295.234 49.2344 295.938 47.3594 295.938 45.1562C295.938 40.8906 292.984 38.3594 288.672 38.3594H253.141C250.141 38.3594 247.984 40.2812 247.984 43.2812C247.984 46.2812 250.141 48.25 253.141 48.25H283.656V48.4844L257.359 98.1719C256.656 99.5781 256.328 100.609 256.328 102.016C256.328 104.875 258.484 106.938 261.859 106.938Z" fill="white"/>
</g>
<path d="M35.7197 133.331C35.7197 128.669 38.6182 125.572 42.9932 125.572C47.3682 125.572 50.2734 128.669 50.2734 133.331C50.2734 135.43 49.6582 137.761 48.6328 139.559C48.3867 139.989 47.8945 140.112 47.457 139.873C47.4434 139.866 47.4365 139.866 47.4229 139.859C47.0537 140.352 46.4453 140.536 45.7686 140.324C44.9072 140.044 44.5244 139.278 44.8047 138.41L45.7959 135.327C46.0762 134.473 46.835 134.09 47.7031 134.356C48.0176 134.466 48.2637 134.63 48.4414 134.842C48.5166 134.336 48.5576 133.83 48.5576 133.331C48.5576 129.701 46.3291 127.288 42.9932 127.288C39.6572 127.288 37.4355 129.701 37.4355 133.331C37.4355 133.83 37.4766 134.336 37.5518 134.842C37.7295 134.63 37.9756 134.459 38.29 134.356C39.1582 134.09 39.917 134.473 40.1904 135.327L41.1885 138.41C41.4688 139.271 41.0859 140.044 40.2246 140.324C39.541 140.536 38.9326 140.352 38.5635 139.859L38.5361 139.873C38.0918 140.112 37.5996 139.989 37.3604 139.559C36.3281 137.761 35.7197 135.43 35.7197 133.331Z" fill="white"/>
<path d="M65.2393 138.253C63.127 138.253 61.7324 136.995 61.6162 135.348L61.6094 135.252H63.4824L63.4961 135.3C63.6396 136.024 64.3164 136.605 65.2461 136.605C66.3057 136.605 67.0439 135.86 67.0439 134.801V134.787C67.0439 133.734 66.2988 133.003 65.2529 133.003C64.7539 133.003 64.3301 133.146 64.002 133.427C63.8174 133.577 63.6533 133.762 63.5439 133.974H61.7734L62.2314 128.136H68.3975V129.776H63.8379L63.5918 132.586H63.7148C64.1113 131.923 64.877 131.513 65.8203 131.513C67.6592 131.513 68.9854 132.866 68.9854 134.746V134.76C68.9854 136.838 67.4541 138.253 65.2393 138.253ZM74.5908 138.253C72.1572 138.253 70.6738 136.257 70.6738 133.071V133.058C70.6738 129.865 72.1572 127.883 74.5908 127.883C77.0312 127.883 78.5078 129.865 78.5078 133.058V133.071C78.5078 136.257 77.0312 138.253 74.5908 138.253ZM74.5908 136.619C75.7598 136.619 76.4229 135.3 76.4229 133.071V133.058C76.4229 130.822 75.7598 129.517 74.5908 129.517C73.4287 129.517 72.7656 130.822 72.7656 133.058V133.071C72.7656 135.3 73.4287 136.619 74.5908 136.619ZM86.1982 133.543C84.7559 133.543 83.8672 132.477 83.8672 130.768V130.761C83.8672 129.052 84.7559 127.992 86.1982 127.992C87.6475 127.992 88.5293 129.052 88.5293 130.761V130.768C88.5293 132.477 87.6475 133.543 86.1982 133.543ZM87.7158 138H86.1367L92.7744 128.136H94.3535L87.7158 138ZM86.1982 132.449C86.7998 132.449 87.1348 131.841 87.1348 130.768V130.761C87.1348 129.681 86.7998 129.086 86.1982 129.086C85.6035 129.086 85.2686 129.681 85.2686 130.761V130.768C85.2686 131.841 85.6035 132.449 86.1982 132.449ZM94.2852 138.144C92.8428 138.144 91.9541 137.077 91.9541 135.368V135.361C91.9541 133.652 92.8428 132.593 94.2852 132.593C95.7344 132.593 96.6162 133.652 96.6162 135.361V135.368C96.6162 137.077 95.7344 138.144 94.2852 138.144ZM94.2852 137.05C94.8867 137.05 95.2217 136.441 95.2217 135.368V135.361C95.2217 134.281 94.8867 133.687 94.2852 133.687C93.6904 133.687 93.3555 134.281 93.3555 135.361V135.368C93.3555 136.441 93.6904 137.05 94.2852 137.05Z" fill="white"/>
<path d="M37.0645 156L34.3779 146.136H35.6631L37.625 154.154H37.707L39.915 146.136H41.1592L43.3672 154.154H43.4492L45.4111 146.136H46.6963L44.0098 156H42.8477L40.5781 148.214H40.4961L38.2266 156H37.0645ZM48.5693 156V146.136H49.7998V150.401H55.2139V146.136H56.4443V156H55.2139V151.509H49.7998V156H48.5693ZM58.707 152.582V151.475H63.3008V152.582H58.707ZM67.8193 156V147.503H67.71L65.2012 149.321V148.022L67.8262 146.136H69.0498V156H67.8193ZM75.2021 156.232C73.0215 156.232 71.7227 154.243 71.7227 151.071V151.058C71.7227 147.886 73.0215 145.903 75.2021 145.903C77.3828 145.903 78.6953 147.886 78.6953 151.058V151.071C78.6953 154.243 77.3828 156.232 75.2021 156.232ZM75.2021 155.159C76.6172 155.159 77.458 153.587 77.458 151.071V151.058C77.458 148.542 76.6172 146.983 75.2021 146.983C73.7871 146.983 72.96 148.542 72.96 151.058V151.071C72.96 153.587 73.7871 155.159 75.2021 155.159ZM84.0205 156.232C81.8398 156.232 80.541 154.243 80.541 151.071V151.058C80.541 147.886 81.8398 145.903 84.0205 145.903C86.2012 145.903 87.5137 147.886 87.5137 151.058V151.071C87.5137 154.243 86.2012 156.232 84.0205 156.232ZM84.0205 155.159C85.4355 155.159 86.2764 153.587 86.2764 151.071V151.058C86.2764 148.542 85.4355 146.983 84.0205 146.983C82.6055 146.983 81.7783 148.542 81.7783 151.058V151.071C81.7783 153.587 82.6055 155.159 84.0205 155.159ZM92.8389 156.232C90.6582 156.232 89.3594 154.243 89.3594 151.071V151.058C89.3594 147.886 90.6582 145.903 92.8389 145.903C95.0195 145.903 96.332 147.886 96.332 151.058V151.071C96.332 154.243 95.0195 156.232 92.8389 156.232ZM92.8389 155.159C94.2539 155.159 95.0947 153.587 95.0947 151.071V151.058C95.0947 148.542 94.2539 146.983 92.8389 146.983C91.4238 146.983 90.5967 148.542 90.5967 151.058V151.071C90.5967 153.587 91.4238 155.159 92.8389 155.159ZM97.4531 156L100.816 151.044V151.017L97.4941 146.136H98.9775L101.616 150.107H101.657L104.323 146.136H105.725L102.313 151.078V151.105L105.649 156H104.173L101.548 152.062H101.507L98.8477 156H97.4531ZM107.604 156V146.136H109.033L112.41 154.366H112.52L115.896 146.136H117.325V156H116.177V148.467H116.102L112.984 156H111.945L108.828 148.467H108.753V156H107.604ZM122.924 156.232C121.085 156.232 119.772 155.05 119.629 153.471L119.622 153.396H120.805L120.812 153.45C120.928 154.394 121.782 155.146 122.938 155.146C124.25 155.146 125.152 154.209 125.152 152.876V152.862C125.152 151.55 124.236 150.613 122.958 150.613C122.302 150.613 121.741 150.812 121.317 151.215C121.146 151.379 120.989 151.57 120.866 151.803H119.8L120.319 146.136H125.809V147.236H121.29L120.955 150.572H121.064C121.502 149.909 122.274 149.547 123.17 149.547C125.022 149.547 126.355 150.935 126.355 152.842V152.855C126.355 154.845 124.927 156.232 122.924 156.232Z" fill="white"/>
<g opacity="0.35" filter="url(#filter2_b_109_3981)">
<rect x="33.5" y="166" width="142" height="7" rx="3.5" fill="white"/>
</g>
<rect x="33.5" y="166" width="75" height="7" rx="3.5" fill="white"/>
<g opacity="0.35" filter="url(#filter3_b_109_3981)">
<circle cx="229.5" cy="153" r="26" stroke="white" stroke-width="6"/>
</g>
<g opacity="0.35" filter="url(#filter4_b_109_3981)">
<circle cx="229.5" cy="153" r="17" stroke="white" stroke-width="6"/>
</g>
<g opacity="0.35" filter="url(#filter5_b_109_3981)">
<circle cx="229.5" cy="153" r="8" stroke="white" stroke-width="6"/>
</g>
<g filter="url(#filter6_b_109_3981)">
<path d="M231.3 145.205C232.546 145.493 233.705 146.075 234.68 146.903C235.655 147.732 236.417 148.781 236.902 149.965C237.387 151.148 237.582 152.431 237.469 153.705C237.356 154.979 236.94 156.208 236.254 157.288" stroke="white" stroke-width="6" stroke-linecap="round"/>
</g>
<g filter="url(#filter7_b_109_3981)">
<path d="M231.866 136.165C234.741 136.57 237.465 137.703 239.778 139.459C242.091 141.215 243.916 143.534 245.078 146.194C246.241 148.855 246.702 151.77 246.419 154.659C246.135 157.549 245.116 160.318 243.459 162.703C241.802 165.087 239.561 167.007 236.951 168.28C234.342 169.553 231.449 170.136 228.55 169.973C225.651 169.811 222.841 168.909 220.39 167.353C217.938 165.797 215.926 163.639 214.545 161.084" stroke="white" stroke-width="6" stroke-linecap="round"/>
</g>
<g filter="url(#filter8_b_109_3981)">
<path d="M232.218 127.142C237.357 127.683 242.219 129.742 246.183 133.058C250.147 136.374 253.032 140.796 254.472 145.76C255.911 150.723 255.838 156.003 254.263 160.925C252.687 165.847 249.681 170.188 245.628 173.394C241.574 176.599 236.657 178.524 231.505 178.923C226.352 179.321 221.198 178.175 216.699 175.631C212.201 173.086 208.563 169.259 206.25 164.638C203.937 160.017 203.053 154.811 203.712 149.685" stroke="white" stroke-width="6" stroke-linecap="round"/>
</g>
<g filter="url(#filter9_b_109_3981)">
<path d="M300.131 160V157.819L305.126 152.889C307.307 150.772 307.897 149.988 307.897 148.903V148.871C307.897 147.55 306.995 146.626 305.513 146.626C303.998 146.626 302.956 147.636 302.956 149.107V149.161H299.959L299.948 149.118C299.948 146.143 302.269 144.102 305.663 144.102C308.854 144.102 311.088 145.928 311.088 148.603V148.635C311.088 150.396 310.175 151.857 307.35 154.468L304.481 157.143V157.39H311.313V160H300.131ZM320.079 160.344C316.577 160.344 314.268 158.464 314.053 155.692L314.042 155.553H317.146L317.157 155.671C317.297 156.874 318.403 157.733 320.079 157.733C321.733 157.733 322.818 156.81 322.818 155.499V155.478C322.818 153.995 321.712 153.179 319.832 153.179H318.06V150.869H319.789C321.422 150.869 322.475 150.01 322.475 148.753V148.731C322.475 147.442 321.583 146.647 320.058 146.647C318.532 146.647 317.512 147.475 317.383 148.764L317.372 148.86H314.386L314.396 148.731C314.622 145.96 316.803 144.155 320.058 144.155C323.388 144.155 325.536 145.831 325.536 148.302V148.323C325.536 150.257 324.118 151.514 322.303 151.89V151.954C324.612 152.169 326.116 153.501 326.116 155.606V155.628C326.116 158.442 323.699 160.344 320.079 160.344Z" fill="white"/>
</g>
<g filter="url(#filter10_b_109_3981)">
<path d="M298.52 179V171.717H298.426L296.275 173.275V172.162L298.525 170.545H299.574V179H298.52ZM304.795 179.199C303.219 179.199 302.094 178.186 301.971 176.832L301.965 176.768H302.979L302.984 176.814C303.084 177.623 303.816 178.268 304.807 178.268C305.932 178.268 306.705 177.465 306.705 176.322V176.311C306.705 175.186 305.92 174.383 304.824 174.383C304.262 174.383 303.781 174.553 303.418 174.898C303.271 175.039 303.137 175.203 303.031 175.402H302.117L302.562 170.545H307.268V171.488H303.395L303.107 174.348H303.201C303.576 173.779 304.238 173.469 305.006 173.469C306.594 173.469 307.736 174.658 307.736 176.293V176.305C307.736 178.01 306.512 179.199 304.795 179.199Z" fill="white"/>
</g>
<g filter="url(#filter11_b_109_3981)">
<path d="M315.502 179V178.273L318.361 175.18C319.439 174.014 319.756 173.574 319.756 172.836V172.824C319.756 171.934 319.152 171.266 318.156 171.266C317.143 171.266 316.469 171.928 316.469 172.924L316.463 172.936L315.455 172.93L315.443 172.924C315.449 171.424 316.609 170.346 318.227 170.346C319.703 170.346 320.834 171.348 320.834 172.713V172.725C320.834 173.691 320.418 174.395 318.889 175.971L316.967 177.957V178.051H320.975V179H315.502ZM325.732 179.199C324.186 179.199 322.551 178.109 322.551 174.928V174.916C322.551 172.033 323.752 170.346 325.803 170.346C327.221 170.346 328.275 171.178 328.562 172.426L328.58 172.502H327.52L327.496 172.438C327.238 171.729 326.646 171.289 325.791 171.289C324.256 171.289 323.629 172.789 323.564 174.553C323.559 174.617 323.559 174.688 323.559 174.752H323.67C323.98 174.061 324.777 173.445 325.92 173.445C327.508 173.445 328.691 174.652 328.691 176.275V176.287C328.691 177.975 327.438 179.199 325.732 179.199ZM323.811 176.275C323.811 177.389 324.648 178.268 325.721 178.268C326.781 178.268 327.631 177.406 327.631 176.311V176.299C327.631 175.174 326.834 174.365 325.738 174.365C324.643 174.365 323.811 175.168 323.811 176.27V176.275Z" fill="white"/>
</g>
<circle cx="294" cy="134.5" r="3.5" fill="white"/>
<g opacity="0.35" filter="url(#filter12_b_109_3981)">
<path fill-rule="evenodd" clip-rule="evenodd" d="M301.477 132.813C305.019 130.879 309.007 129.911 313.042 130.006C317.076 130.101 321.014 131.256 324.461 133.355C327.908 135.454 330.742 138.422 332.679 141.963C334.615 145.503 335.586 149.491 335.494 153.525C335.402 157.56 334.25 161.499 332.154 164.947C331.293 166.363 331.743 168.208 333.159 169.069C334.575 169.93 336.42 169.479 337.281 168.064C339.924 163.716 341.376 158.749 341.492 153.662C341.609 148.575 340.384 143.547 337.943 139.083C335.501 134.619 331.928 130.876 327.582 128.23C323.236 125.584 318.27 124.128 313.183 124.008C308.096 123.888 303.068 125.109 298.602 127.547C297.629 128.078 296.691 128.663 295.79 129.298C297.81 129.993 299.298 131.831 299.481 134.039C300.123 133.598 300.79 133.189 301.477 132.813ZM293.539 139.981C291.331 139.798 289.493 138.31 288.798 136.29C288.429 136.814 288.076 137.351 287.741 137.901C285.092 142.245 283.632 147.209 283.509 152.296C283.385 157.383 284.602 162.412 287.037 166.88C287.83 168.335 289.652 168.871 291.107 168.078C292.562 167.285 293.098 165.463 292.305 164.008C290.374 160.465 289.409 156.476 289.507 152.442C289.605 148.407 290.762 144.47 292.864 141.025C293.08 140.67 293.305 140.322 293.539 139.981Z" fill="white"/>
</g>
<defs>
<filter id="filter0_b_109_3981" x="15.9961" y="-57.8047" width="343.359" height="138.555" filterUnits="userSpaceOnUse" color-interpolation-filters="sRGB">
<feFlood flood-opacity="0" result="BackgroundImageFix"/>
<feGaussianBlur in="BackgroundImageFix" stdDeviation="30"/>
<feComposite in2="SourceAlpha" operator="in" result="effect1_backgroundBlur_109_3981"/>
<feBlend mode="normal" in="SourceGraphic" in2="effect1_backgroundBlur_109_3981" result="shape"/>
</filter>
<filter id="filter1_b_109_3981" x="62.7344" y="21" width="249.203" height="102.359" filterUnits="userSpaceOnUse" color-interpolation-filters="sRGB">
<feFlood flood-opacity="0" result="BackgroundImageFix"/>
<feGaussianBlur in="BackgroundImageFix" stdDeviation="8"/>
<feComposite in2="SourceAlpha" operator="in" result="effect1_backgroundBlur_109_3981"/>
<feBlend mode="normal" in="SourceGraphic" in2="effect1_backgroundBlur_109_3981" result="shape"/>
</filter>
<filter id="filter2_b_109_3981" x="-2.5" y="130" width="214" height="79" filterUnits="userSpaceOnUse" color-interpolation-filters="sRGB">
<feFlood flood-opacity="0" result="BackgroundImageFix"/>
<feGaussianBlur in="BackgroundImageFix" stdDeviation="18"/>
<feComposite in2="SourceAlpha" operator="in" result="effect1_backgroundBlur_109_3981"/>
<feBlend mode="normal" in="SourceGraphic" in2="effect1_backgroundBlur_109_3981" result="shape"/>
</filter>
<filter id="filter3_b_109_3981" x="164.5" y="88" width="130" height="130" filterUnits="userSpaceOnUse" color-interpolation-filters="sRGB">
<feFlood flood-opacity="0" result="BackgroundImageFix"/>
<feGaussianBlur in="BackgroundImageFix" stdDeviation="18"/>
<feComposite in2="SourceAlpha" operator="in" result="effect1_backgroundBlur_109_3981"/>
<feBlend mode="normal" in="SourceGraphic" in2="effect1_backgroundBlur_109_3981" result="shape"/>
</filter>
<filter id="filter4_b_109_3981" x="173.5" y="97" width="112" height="112" filterUnits="userSpaceOnUse" color-interpolation-filters="sRGB">
<feFlood flood-opacity="0" result="BackgroundImageFix"/>
<feGaussianBlur in="BackgroundImageFix" stdDeviation="18"/>
<feComposite in2="SourceAlpha" operator="in" result="effect1_backgroundBlur_109_3981"/>
<feBlend mode="normal" in="SourceGraphic" in2="effect1_backgroundBlur_109_3981" result="shape"/>
</filter>
<filter id="filter5_b_109_3981" x="182.5" y="106" width="94" height="94" filterUnits="userSpaceOnUse" color-interpolation-filters="sRGB">
<feFlood flood-opacity="0" result="BackgroundImageFix"/>
<feGaussianBlur in="BackgroundImageFix" stdDeviation="18"/>
<feComposite in2="SourceAlpha" operator="in" result="effect1_backgroundBlur_109_3981"/>
<feBlend mode="normal" in="SourceGraphic" in2="effect1_backgroundBlur_109_3981" result="shape"/>
</filter>
<filter id="filter6_b_109_3981" x="192.299" y="106.205" width="84.2012" height="90.0835" filterUnits="userSpaceOnUse" color-interpolation-filters="sRGB">
<feFlood flood-opacity="0" result="BackgroundImageFix"/>
<feGaussianBlur in="BackgroundImageFix" stdDeviation="18"/>
<feComposite in2="SourceAlpha" operator="in" result="effect1_backgroundBlur_109_3981"/>
<feBlend mode="normal" in="SourceGraphic" in2="effect1_backgroundBlur_109_3981" result="shape"/>
</filter>
<filter id="filter7_b_109_3981" x="175.545" y="97.165" width="109.955" height="111.835" filterUnits="userSpaceOnUse" color-interpolation-filters="sRGB">
<feFlood flood-opacity="0" result="BackgroundImageFix"/>
<feGaussianBlur in="BackgroundImageFix" stdDeviation="18"/>
<feComposite in2="SourceAlpha" operator="in" result="effect1_backgroundBlur_109_3981"/>
<feBlend mode="normal" in="SourceGraphic" in2="effect1_backgroundBlur_109_3981" result="shape"/>
</filter>
<filter id="filter8_b_109_3981" x="164.5" y="88.1421" width="130" height="129.858" filterUnits="userSpaceOnUse" color-interpolation-filters="sRGB">
<feFlood flood-opacity="0" result="BackgroundImageFix"/>
<feGaussianBlur in="BackgroundImageFix" stdDeviation="18"/>
<feComposite in2="SourceAlpha" operator="in" result="effect1_backgroundBlur_109_3981"/>
<feBlend mode="normal" in="SourceGraphic" in2="effect1_backgroundBlur_109_3981" result="shape"/>
</filter>
<filter id="filter9_b_109_3981" x="263.948" y="108.102" width="98.168" height="88.2422" filterUnits="userSpaceOnUse" color-interpolation-filters="sRGB">
<feFlood flood-opacity="0" result="BackgroundImageFix"/>
<feGaussianBlur in="BackgroundImageFix" stdDeviation="18"/>
<feComposite in2="SourceAlpha" operator="in" result="effect1_backgroundBlur_109_3981"/>
<feBlend mode="normal" in="SourceGraphic" in2="effect1_backgroundBlur_109_3981" result="shape"/>
</filter>
<filter id="filter10_b_109_3981" x="260.275" y="134.545" width="83.4609" height="80.6543" filterUnits="userSpaceOnUse" color-interpolation-filters="sRGB">
<feFlood flood-opacity="0" result="BackgroundImageFix"/>
<feGaussianBlur in="BackgroundImageFix" stdDeviation="18"/>
<feComposite in2="SourceAlpha" operator="in" result="effect1_backgroundBlur_109_3981"/>
<feBlend mode="normal" in="SourceGraphic" in2="effect1_backgroundBlur_109_3981" result="shape"/>
</filter>
<filter id="filter11_b_109_3981" x="279.443" y="134.346" width="85.248" height="80.8535" filterUnits="userSpaceOnUse" color-interpolation-filters="sRGB">
<feFlood flood-opacity="0" result="BackgroundImageFix"/>
<feGaussianBlur in="BackgroundImageFix" stdDeviation="18"/>
<feComposite in2="SourceAlpha" operator="in" result="effect1_backgroundBlur_109_3981"/>
<feBlend mode="normal" in="SourceGraphic" in2="effect1_backgroundBlur_109_3981" result="shape"/>
</filter>
<filter id="filter12_b_109_3981" x="247.5" y="88" width="130" height="117.506" filterUnits="userSpaceOnUse" color-interpolation-filters="sRGB">
<feFlood flood-opacity="0" result="BackgroundImageFix"/>
<feGaussianBlur in="BackgroundImageFix" stdDeviation="18"/>
<feComposite in2="SourceAlpha" operator="in" result="effect1_backgroundBlur_109_3981"/>
<feBlend mode="normal" in="SourceGraphic" in2="effect1_backgroundBlur_109_3981" result="shape"/>
</filter>
</defs>
</svg>
