<svg width="375" height="97" viewBox="0 0 375 97" fill="none" xmlns="http://www.w3.org/2000/svg">
<rect x="120.5" y="85" width="134" height="6" rx="3" fill="white" style="mix-blend-mode:luminosity"/>
<rect x="120.5" y="85" width="134" height="6" rx="3" fill="white" fill-opacity="0.01"/>
<g filter="url(#filter0_b_109_3971)">
<circle cx="72" cy="22" r="22" fill="black" fill-opacity="0.2"/>
</g>
<path d="M67.2715 13.999H76.7197V13.4453C76.7197 12.1709 76.0605 11.5117 74.8301 11.5117H69.1699C67.9395 11.5117 67.2715 12.1709 67.2715 13.4453V13.999ZM70.9629 31.7529H73.0371C74.2588 31.7529 74.9268 31.0938 74.9268 29.8193V20.8457C74.9268 19.9756 75.1201 19.3604 75.4453 18.8594L75.999 18.0332C76.4561 17.3125 76.7197 16.6885 76.7197 15.915V15.2207H67.2715V15.915C67.2715 16.6885 67.5352 17.3125 68.001 18.0332L68.5459 18.8594C68.8711 19.3604 69.0645 19.9756 69.0645 20.8457V29.8193C69.0645 31.0938 69.7324 31.7529 70.9629 31.7529ZM72 25.1348C71.2178 25.1348 70.708 24.5723 70.708 23.7725V21.3379C70.708 20.5293 71.2178 19.9844 72 19.9932C72.7822 20.002 73.2832 20.5469 73.2832 21.3379V23.7725C73.2832 24.5723 72.7822 25.1348 72 25.1348ZM72 24.4668C72.4219 24.4668 72.791 24.1064 72.791 23.6758C72.791 23.2539 72.4219 22.8848 72 22.8848C71.5693 22.8848 71.209 23.2539 71.209 23.6758C71.209 24.1064 71.5693 24.4668 72 24.4668Z" fill="white"/>
<path d="M171.543 27H172.773V23.4795H175.262C177.114 23.4795 178.427 22.1738 178.427 20.3008V20.2871C178.427 18.4141 177.114 17.1357 175.262 17.1357H171.543V27ZM174.947 18.2295C176.355 18.2295 177.169 19.002 177.169 20.3008V20.3145C177.169 21.6133 176.355 22.3857 174.947 22.3857H172.773V18.2295H174.947ZM182.596 27.1299C184.332 27.1299 185.385 26.1455 185.638 25.1475L185.651 25.0928H184.462L184.435 25.1543C184.236 25.5986 183.621 26.0703 182.623 26.0703C181.311 26.0703 180.47 25.1816 180.436 23.6572H185.74V23.1924C185.74 20.9912 184.523 19.501 182.521 19.501C180.518 19.501 179.219 21.0596 179.219 23.3359V23.3428C179.219 25.6533 180.49 27.1299 182.596 27.1299ZM182.514 20.5605C183.601 20.5605 184.407 21.251 184.53 22.707H180.456C180.586 21.3057 181.42 20.5605 182.514 20.5605ZM187.086 27H188.275V22.4336C188.275 21.3535 189.082 20.6357 190.217 20.6357C190.477 20.6357 190.702 20.6631 190.948 20.7041V19.5488C190.832 19.5283 190.579 19.501 190.354 19.501C189.355 19.501 188.665 19.9521 188.385 20.7246H188.275V19.6309H187.086V27ZM194.311 27.1299C195.985 27.1299 197.264 26.2207 197.264 24.9082V24.8945C197.264 23.8418 196.594 23.2402 195.206 22.9053L194.071 22.6318C193.203 22.4199 192.834 22.1055 192.834 21.6064V21.5928C192.834 20.9434 193.477 20.4922 194.352 20.4922C195.24 20.4922 195.814 20.8955 195.972 21.4766H197.141C196.977 20.2734 195.903 19.501 194.358 19.501C192.793 19.501 191.617 20.4238 191.617 21.6475V21.6543C191.617 22.7139 192.239 23.3154 193.62 23.6436L194.762 23.917C195.671 24.1357 196.047 24.4844 196.047 24.9834V24.9971C196.047 25.667 195.343 26.1387 194.352 26.1387C193.408 26.1387 192.82 25.7354 192.622 25.1201H191.405C191.542 26.3369 192.67 27.1299 194.311 27.1299ZM201.638 27.1299C203.736 27.1299 205.035 25.6807 205.035 23.3223V23.3086C205.035 20.9434 203.736 19.501 201.638 19.501C199.539 19.501 198.24 20.9434 198.24 23.3086V23.3223C198.24 25.6807 199.539 27.1299 201.638 27.1299ZM201.638 26.0771C200.243 26.0771 199.457 25.0586 199.457 23.3223V23.3086C199.457 21.5654 200.243 20.5537 201.638 20.5537C203.032 20.5537 203.818 21.5654 203.818 23.3086V23.3223C203.818 25.0586 203.032 26.0771 201.638 26.0771ZM206.381 27H207.57V22.6387C207.57 21.3467 208.315 20.5537 209.491 20.5537C210.667 20.5537 211.214 21.1895 211.214 22.5156V27H212.403V22.2285C212.403 20.4785 211.48 19.501 209.826 19.501C208.739 19.501 208.049 19.959 207.68 20.7383H207.57V19.6309H206.381V27ZM216.08 27.1299C217.071 27.1299 217.844 26.6992 218.309 25.9131H218.418V27H219.607V21.9551C219.607 20.4238 218.603 19.501 216.805 19.501C215.232 19.501 214.111 20.2803 213.92 21.4355L213.913 21.4766H215.103L215.109 21.4561C215.301 20.8818 215.882 20.5537 216.764 20.5537C217.864 20.5537 218.418 21.0459 218.418 21.9551V22.625L216.306 22.7549C214.59 22.8574 213.619 23.6162 213.619 24.9287V24.9424C213.619 26.2822 214.679 27.1299 216.08 27.1299ZM214.836 24.915V24.9014C214.836 24.1699 215.328 23.7734 216.449 23.7051L218.418 23.582V24.252C218.418 25.3047 217.536 26.0977 216.326 26.0977C215.472 26.0977 214.836 25.6602 214.836 24.915ZM221.35 27H222.539V16.7051H221.35V27Z" fill="white"/>
<path d="M158.5 21.9961C159.963 21.9961 161.234 20.6836 161.234 18.9746C161.234 17.2861 159.963 16.0352 158.5 16.0352C157.037 16.0352 155.766 17.3135 155.766 18.9883C155.766 20.6836 157.03 21.9961 158.5 21.9961ZM153.913 28.3262H163.08C163.812 28.3262 164.249 27.9844 164.249 27.417C164.249 25.6533 162.041 23.2197 158.493 23.2197C154.952 23.2197 152.744 25.6533 152.744 27.417C152.744 27.9844 153.182 28.3262 153.913 28.3262Z" fill="white"/>
<g filter="url(#filter1_b_109_3971)">
<circle cx="303" cy="22" r="22" fill="black" fill-opacity="0.2"/>
</g>
<path d="M295.063 29.9512H310.937C312.879 29.9512 313.907 28.9316 313.907 27.0068V17.7695C313.907 15.8447 312.879 14.8164 310.937 14.8164H308.695C308.019 14.8164 307.781 14.7021 307.342 14.2539L306.647 13.5332C306.182 13.0498 305.707 12.8213 304.819 12.8213H301.137C300.249 12.8213 299.774 13.0498 299.309 13.5332L298.614 14.2539C298.175 14.7021 297.938 14.8164 297.252 14.8164H295.063C293.121 14.8164 292.084 15.8447 292.084 17.7695V27.0068C292.084 28.9316 293.121 29.9512 295.063 29.9512ZM303 27.0947C300.39 27.0947 298.289 25.0029 298.289 22.375C298.289 19.7559 300.39 17.6553 303 17.6553C305.61 17.6553 307.702 19.7559 307.702 22.375C307.702 25.0029 305.61 27.0947 303 27.0947ZM308.256 19.1494C308.256 18.5078 308.81 17.9541 309.46 17.9541C310.102 17.9541 310.655 18.5078 310.655 19.1494C310.655 19.8086 310.11 20.3359 309.46 20.3447C308.801 20.3447 308.256 19.8174 308.256 19.1494ZM303 25.3457C304.644 25.3457 305.962 24.0273 305.962 22.375C305.962 20.7314 304.644 19.4043 303 19.4043C301.356 19.4043 300.038 20.7314 300.038 22.375C300.038 24.0273 301.365 25.3457 303 25.3457Z" fill="white"/>
<defs>
<filter id="filter0_b_109_3971" x="-14" y="-64" width="172" height="172" filterUnits="userSpaceOnUse" color-interpolation-filters="sRGB">
<feFlood flood-opacity="0" result="BackgroundImageFix"/>
<feGaussianBlur in="BackgroundImageFix" stdDeviation="32"/>
<feComposite in2="SourceAlpha" operator="in" result="effect1_backgroundBlur_109_3971"/>
<feBlend mode="normal" in="SourceGraphic" in2="effect1_backgroundBlur_109_3971" result="shape"/>
</filter>
<filter id="filter1_b_109_3971" x="217" y="-64" width="172" height="172" filterUnits="userSpaceOnUse" color-interpolation-filters="sRGB">
<feFlood flood-opacity="0" result="BackgroundImageFix"/>
<feGaussianBlur in="BackgroundImageFix" stdDeviation="32"/>
<feComposite in2="SourceAlpha" operator="in" result="effect1_backgroundBlur_109_3971"/>
<feBlend mode="normal" in="SourceGraphic" in2="effect1_backgroundBlur_109_3971" result="shape"/>
</filter>
</defs>
</svg>
