<svg width="375" height="31" viewBox="0 0 375 31" fill="none" xmlns="http://www.w3.org/2000/svg">
<path d="M45.1257 15.8896C47.2311 15.8896 49.0632 17.3867 49.0632 20.9414V20.9551C49.0632 24.2773 47.5661 26.2461 45.0847 26.2461C43.2731 26.2461 41.9196 25.1729 41.6052 23.6621L41.5915 23.5869H43.3278L43.3483 23.6553C43.6081 24.3457 44.2165 24.7969 45.0847 24.7969C46.6501 24.7969 47.3132 23.2656 47.3884 21.3789C47.3884 21.3037 47.3952 21.2285 47.3952 21.1533H47.2585C46.8962 21.9326 46.0349 22.623 44.6813 22.623C42.7878 22.623 41.4616 21.2422 41.4616 19.3691V19.3555C41.4616 17.3525 42.986 15.8896 45.1257 15.8896ZM45.1188 21.2695C46.2331 21.2695 47.0876 20.4629 47.0876 19.3486V19.335C47.0876 18.207 46.2331 17.3252 45.1393 17.3252C44.0524 17.3252 43.1843 18.1934 43.1843 19.2939V19.3076C43.1843 20.4492 43.9977 21.2695 45.1188 21.2695ZM51.7587 19.6084C51.1366 19.6084 50.6718 19.1299 50.6718 18.5283C50.6718 17.9199 51.1366 17.4482 51.7587 17.4482C52.3876 17.4482 52.8456 17.9199 52.8456 18.5283C52.8456 19.1299 52.3876 19.6084 51.7587 19.6084ZM51.7587 24.6807C51.1366 24.6807 50.6718 24.209 50.6718 23.6006C50.6718 22.9922 51.1366 22.5205 51.7587 22.5205C52.3876 22.5205 52.8456 22.9922 52.8456 23.6006C52.8456 24.209 52.3876 24.6807 51.7587 24.6807ZM59.2394 26V24.1064H54.4132V22.6641C55.6915 20.4424 57.0929 18.1729 58.4327 16.1357H60.9278V22.6504H62.254V24.1064H60.9278V26H59.2394ZM56.0538 22.6914H59.2667V17.5439H59.1642C58.1524 19.0889 57.0108 20.9141 56.0538 22.5889V22.6914ZM65.9339 26V17.8721H65.8177L63.3636 19.6084V17.9473L65.9407 16.1357H67.6976V26H65.9339Z" fill="white"/>
<rect x="141.5" y="11" width="92" height="20" rx="10" fill="black"/>
<path d="M289.944 21.5C289.944 20.9477 290.367 20.5 290.889 20.5H291.833C292.355 20.5 292.778 20.9477 292.778 21.5V29.5C292.778 30.0523 292.355 30.5 291.833 30.5H290.889C290.367 30.5 289.944 30.0523 289.944 29.5V21.5Z" fill="white"/>
<path d="M294.667 19.5C294.667 18.9477 295.09 18.5 295.611 18.5H296.556C297.077 18.5 297.5 18.9477 297.5 19.5V29.5C297.5 30.0523 297.077 30.5 296.556 30.5H295.611C295.09 30.5 294.667 30.0523 294.667 29.5V19.5Z" fill="white"/>
<path d="M285.222 25C285.222 24.4477 285.645 24 286.167 24H287.111C287.633 24 288.056 24.4477 288.056 25V29.5C288.056 30.0523 287.633 30.5 287.111 30.5H286.167C285.645 30.5 285.222 30.0523 285.222 29.5V25Z" fill="white"/>
<path d="M280.5 27.5C280.5 26.9477 280.923 26.5 281.444 26.5H282.389C282.91 26.5 283.333 26.9477 283.333 27.5V29.5C283.333 30.0523 282.91 30.5 282.389 30.5H281.444C280.923 30.5 280.5 30.0523 280.5 29.5V27.5Z" fill="white"/>
<path fill-rule="evenodd" clip-rule="evenodd" d="M315 21.1705C317.467 21.1706 319.839 22.1381 321.627 23.8728C321.761 24.0068 321.977 24.0051 322.109 23.869L323.396 22.5435C323.463 22.4745 323.501 22.381 323.5 22.2838C323.499 22.1865 323.461 22.0935 323.393 22.0253C318.701 17.4356 311.299 17.4356 306.607 22.0253C306.539 22.0935 306.501 22.1865 306.5 22.2837C306.499 22.3809 306.537 22.4744 306.604 22.5435L307.891 23.869C308.023 24.0053 308.239 24.007 308.373 23.8728C310.161 22.1379 312.534 21.1705 315 21.1705ZM315.036 25.1724C316.391 25.1723 317.698 25.6865 318.702 26.615C318.838 26.7468 319.052 26.7439 319.185 26.6086L320.47 25.283C320.538 25.2134 320.575 25.1191 320.574 25.0211C320.573 24.9231 320.534 24.8296 320.465 24.7615C317.406 21.8569 312.668 21.8569 309.609 24.7615C309.54 24.8296 309.501 24.9231 309.5 25.0212C309.499 25.1192 309.537 25.2135 309.605 25.283L310.889 26.6086C311.022 26.7439 311.236 26.7468 311.372 26.615C312.376 25.6871 313.682 25.173 315.036 25.1724ZM317.65 27.7597C317.652 27.858 317.614 27.9528 317.545 28.0216L315.322 30.3119C315.257 30.3792 315.168 30.4171 315.075 30.4171C314.983 30.4171 314.894 30.3792 314.828 30.3119L312.605 28.0216C312.536 27.9527 312.498 27.8579 312.5 27.7596C312.502 27.6614 312.544 27.5683 312.616 27.5024C314.035 26.2765 316.115 26.2765 317.535 27.5024C317.606 27.5683 317.648 27.6614 317.65 27.7597Z" fill="white"/>
<rect x="332.5" y="18" width="25" height="13" rx="4" fill="white" fill-opacity="0.4"/>
<path d="M332.5 24.4C332.5 22.1598 332.5 21.0397 332.936 20.184C333.319 19.4314 333.931 18.8195 334.684 18.436C335.54 18 336.66 18 338.9 18H353.5V31H338.9C336.66 31 335.54 31 334.684 30.564C333.931 30.1805 333.319 29.5686 332.936 28.816C332.5 27.9603 332.5 26.8402 332.5 24.6V24.4Z" fill="white"/>
<path d="M358 22.5C358.398 22.5 358.779 22.7107 359.061 23.0858C359.342 23.4609 359.5 23.9696 359.5 24.5C359.5 25.0304 359.342 25.5391 359.061 25.9142C358.779 26.2893 358.398 26.5 358 26.5L358 24.5V22.5Z" fill="white"/>
<path d="M341.484 20.7686C343.115 20.7686 344.395 21.9307 344.395 24.4062V24.416C344.395 26.7744 343.281 28.1758 341.475 28.1758C340.112 28.1758 339.102 27.3701 338.882 26.2666L338.872 26.2227H340.317L340.332 26.2666C340.503 26.7061 340.903 27.0039 341.47 27.0039C342.49 27.0039 342.939 26.0029 342.993 24.7188C342.993 24.6699 342.993 24.6162 342.993 24.5625H342.896C342.642 25.1045 342.056 25.5928 341.079 25.5928C339.707 25.5928 338.784 24.6162 338.784 23.2832V23.2734C338.784 21.833 339.897 20.7686 341.484 20.7686ZM341.484 24.5039C342.212 24.5039 342.773 23.9863 342.773 23.2588V23.249C342.773 22.5117 342.212 21.9404 341.494 21.9404C340.781 21.9404 340.21 22.502 340.21 23.2197V23.2295C340.21 23.9717 340.747 24.5039 341.484 24.5039ZM348.32 20.7686C349.951 20.7686 351.23 21.9307 351.23 24.4062V24.416C351.23 26.7744 350.117 28.1758 348.311 28.1758C346.948 28.1758 345.938 27.3701 345.718 26.2666L345.708 26.2227H347.153L347.168 26.2666C347.339 26.7061 347.739 27.0039 348.306 27.0039C349.326 27.0039 349.775 26.0029 349.829 24.7188C349.829 24.6699 349.829 24.6162 349.829 24.5625H349.731C349.478 25.1045 348.892 25.5928 347.915 25.5928C346.543 25.5928 345.62 24.6162 345.62 23.2832V23.2734C345.62 21.833 346.733 20.7686 348.32 20.7686ZM348.32 24.5039C349.048 24.5039 349.609 23.9863 349.609 23.2588V23.249C349.609 22.5117 349.048 21.9404 348.33 21.9404C347.617 21.9404 347.046 22.502 347.046 23.2197V23.2295C347.046 23.9717 347.583 24.5039 348.32 24.5039Z" fill="black"/>
</svg>
